0
SECTION
2
HEADER
9
$ACADVER
1
AC1015
9
$INSUNITS
70
6
0
ENDSEC
0
SECTION
2
TABLES
0
TABLE
2
LAYER
70
3
0
LAYER
2
0
70
0
62
7
6
CONTINUOUS
0
LAYER
2
Upstream shell
70
0
62
5
6
CONTINUOUS
0
LAYER
2
Core
70
0
62
3
6
CONTINUOUS
0
LAYER
2
Downstream shell
70
0
62
2
6
CONTINUOUS
0
ENDTAB
0
ENDSEC
0
SECTION
2
ENTITIES
0
LWPOLYLINE
8
Upstream shell
38
120
90
5
70
0
10
-2.496881
20
49.937617
10
40
20
52
10
83.118431
20
49.902659
10
120
20
47
10
156.260503
20
49.859965
0
LWPOLYLINE
8
Upstream shell
38
110
90
5
70
0
10
-1.24844
20
24.968808
10
40
20
27
10
81.559215
20
24.95133
10
120
20
22
10
158.130251
20
24.929983
0
LWPOLYLINE
8
Upstream shell
38
100
90
5
70
0
10
0
20
0
10
40
20
2
10
80
20
0
10
120
20
-3
10
160
20
0
0
LWPOLYLINE
8
Core
38
120
90
5
70
0
10
-0.299626
20
5.992514
10
40
20
8
10
80.374212
20
5.988319
10
120
20
3
10
159.55126
20
5.983196
0
LWPOLYLINE
8
Core
38
110
90
5
70
0
10
-0.149813
20
2.996257
10
40
20
5
10
80.187106
20
2.99416
10
120
20
0
10
159.77563
20
2.991598
0
LWPOLYLINE
8
Core
38
100
90
5
70
0
10
0
20
0
10
40
20
2
10
80
20
0
10
120
20
-3
10
160
20
0
0
LWPOLYLINE
8
Downstream shell
38
120
90
5
70
0
10
1.997505
20
-39.950094
10
40
20
-38
10
77.505255
20
-39.922127
10
120
20
-43
10
162.991598
20
-39.887972
0
LWPOLYLINE
8
Downstream shell
38
110
90
5
70
0
10
0.998752
20
-19.975047
10
40
20
-18
10
78.752628
20
-19.961064
10
120
20
-23
10
161.495799
20
-19.943986
0
LWPOLYLINE
8
Downstream shell
38
100
90
5
70
0
10
0
20
0
10
40
20
2
10
80
20
0
10
120
20
-3
10
160
20
0
0
ENDSEC
0
EOF
