0
SECTION
2
HEADER
9
$ACADVER
1
AC1015
9
$INSUNITS
70
6
0
ENDSEC
0
SECTION
2
TABLES
0
TABLE
2
LAYER
70
2
0
LAYER
2
0
70
0
62
7
6
CONTINUOUS
0
LAYER
2
outer shell
70
0
62
5
6
CONTINUOUS
0
LAYER
2
core
70
0
62
3
6
CONTINUOUS
0
ENDTAB
0
ENDSEC
0
SECTION
2
ENTITIES
0
LWPOLYLINE
8
outer shell
38
523
90
2
70
0
10
350000.174782
20
6299996.504367
10
350200.174782
20
6300006.504367
0
LWPOLYLINE
8
outer shell
38
423
90
2
70
0
10
350010.162305
20
6299796.753899
10
350210.162305
20
6299806.753899
0
LWPOLYLINE
8
outer shell
38
523
90
2
70
0
10
349999.825218
20
6300003.495633
10
350199.825218
20
6300013.495633
0
LWPOLYLINE
8
outer shell
38
473
90
2
70
0
10
349997.328337
20
6300053.43325
10
350197.328337
20
6300063.43325
0
LWPOLYLINE
8
core
38
523
90
2
70
0
10
350000.099875
20
6299998.002495
10
350200.099875
20
6300008.002495
0
LWPOLYLINE
8
core
38
423
90
2
70
0
10
350001.598004
20
6299968.039925
10
350201.598004
20
6299978.039925
0
LWPOLYLINE
8
core
38
523
90
2
70
0
10
350000.049938
20
6299999.001248
10
350200.049938
20
6300009.001248
0
LWPOLYLINE
8
core
38
473
90
2
70
0
10
349999.300873
20
6300013.982533
10
350199.300873
20
6300023.982533
0
ENDSEC
0
EOF
